<!-- Exercise Icon SVG -->
<svg xmlns="http://www.w3.org/2000/svg" viewBox="0 0 512 512" width="512" height="512">
  <rect width="100%" height="100%" fill="#34495e"/>
  <path d="M432 152c-8.8 0-16 7.2-16 16v32H96v-32c0-8.8-7.2-16-16-16s-16 7.2-16 16v128c0 8.8 7.2 16 16 16s16-7.2 16-16v-32h320v32c0 8.8 7.2 16 16 16s16-7.2 16-16V168c0-8.8-7.2-16-16-16z" fill="#3498db"/>
  <circle cx="368" cy="144" r="40" fill="#e74c3c"/>
  <circle cx="144" cy="144" r="40" fill="#e74c3c"/>
  <circle cx="368" cy="368" r="40" fill="#e74c3c"/>
  <circle cx="144" cy="368" r="40" fill="#e74c3c"/>
</svg>