<!-- Meal Planner Icon SVG -->
<svg xmlns="http://www.w3.org/2000/svg" viewBox="0 0 512 512" width="512" height="512">
  <rect width="100%" height="100%" fill="#34495e"/>
  <circle cx="256" cy="256" r="160" fill="#ecf0f1"/>
  <path d="M256 128a128 128 0 000 256 128 128 0 000-256zm0 208a80 80 0 110-160 80 80 0 010 160z" fill="#2ecc71"/>
  <path d="M352 192a16 16 0 00-16 16v32h-32a16 16 0 000 32h32v32a16 16 0 0032 0v-32h32a16 16 0 000-32h-32v-32a16 16 0 00-16-16zM208 224h-64a16 16 0 000 32h64a16 16 0 000-32z" fill="#e74c3c"/>
  <path d="M208 288h-64a16 16 0 000 32h64a16 16 0 000-32z" fill="#e74c3c"/>
  <path d="M208 160h-64a16 16 0 000 32h64a16 16 0 000-32z" fill="#e74c3c"/>
</svg>